<svg data-name="360-degree" xmlns="http://www.w3.org/2000/svg" width="186.081" height="186.081">
    <path data-name="Path 237" d="M93.041 108.551C92.11 108.551 0 107.702 0 77.534c0-8.878 9.343-16.583 27.028-22.291a3.874 3.874 0 1 1 2.38 7.373C13.437 67.772 7.753 73.704 7.753 77.534c0 14.414 49.676 23.26 85.287 23.26 30.61 0 85.287-7.769 85.287-23.26 0-4.807-7.707-10.273-20.616-14.623a3.874 3.874 0 0 1 2.473-7.342c21.407 7.2 25.9 15.925 25.9 21.965-.003 30.168-92.113 31.017-93.043 31.017Z" fill="#0b2554" />
    <path data-name="Path 238" d="M93.041 186.081C47.939 186.081 0 175.211 0 155.067V77.534a3.877 3.877 0 1 1 7.753 0v77.533c0 9.715 32.448 23.26 85.287 23.26s85.287-13.545 85.287-23.26V77.534a3.877 3.877 0 1 1 7.753 0v77.533c.001 20.144-47.938 31.014-93.039 31.014Z" fill="#0b2554" />
    <path data-name="Path 239" d="M27.99 177.475a3.877 3.877 0 0 1-2.729-6.629l26.973-26.75a10.189 10.189 0 0 1 14.545.008l15.445 14.747a2.448 2.448 0 0 0 1.8.861 2.707 2.707 0 0 0 1.892-.915l22.848-23.718c4.156-4.148 10.3-4.357 14.375-.512l38.356 33.789a3.873 3.873 0 1 1-5.117 5.815l-38.457-33.882a2.447 2.447 0 0 0-3.621.217l-22.81 23.679a10.476 10.476 0 0 1-7.412 3.272 9.416 9.416 0 0 1-7.273-3.07L61.36 149.64a2.4 2.4 0 0 0-3.653-.062l-26.981 26.765a3.857 3.857 0 0 1-2.737 1.132Z" fill="#0b2554" />
    <path data-name="Path 240" d="M81.41 139.561a11.63 11.63 0 1 1 11.63-11.63 11.644 11.644 0 0 1-11.63 11.63Zm0-15.507a3.877 3.877 0 1 0 3.877 3.877 3.883 3.883 0 0 0-3.877-3.877Z" fill="#0b2554" />
    <path data-name="Path 241" d="M151.191 101.957a3.878 3.878 0 0 1-3.877-3.876V80.946a3.877 3.877 0 1 1 7.753 0v17.135a3.878 3.878 0 0 1-3.876 3.876Z" fill="#0b2554" />
    <path data-name="Path 242" d="M34.891 101.957a3.878 3.878 0 0 1-3.877-3.877V83.194a3.877 3.877 0 0 1 7.753 0V98.08a3.878 3.878 0 0 1-3.876 3.877Z" fill="#0b2554" />
    <path data-name="Path 243" d="M96.917 69.78h-11.63a7.761 7.761 0 0 1-7.753-7.753V31.013a7.761 7.761 0 0 1 7.753-7.753h15.507a3.877 3.877 0 0 1 0 7.753H85.287v11.63h11.63a7.761 7.761 0 0 1 7.753 7.753v11.63a7.761 7.761 0 0 1-7.753 7.754Zm-11.63-19.383v11.63h11.63v-11.63Z" fill="#0b2554" />
    <path data-name="Path 244" d="M131.807 69.78h-11.63a7.761 7.761 0 0 1-7.753-7.753V31.013a7.761 7.761 0 0 1 7.753-7.753h11.63a7.761 7.761 0 0 1 7.753 7.753v31.014a7.761 7.761 0 0 1-7.753 7.753Zm-15.506-7.753 3.877.008v-.008Zm3.877 0h11.63V31.013h-11.631Z" fill="#0b2554" />
    <path data-name="Path 245" d="M62.027 69.781h-11.63a3.877 3.877 0 1 1 0-7.753h11.63V50.397h-11.63a3.877 3.877 0 1 1 0-7.753h11.63a7.761 7.761 0 0 1 7.753 7.753v11.63a7.761 7.761 0 0 1-7.753 7.754Z" fill="#0b2554" />
    <path data-name="Path 246" d="M62.027 50.397h-11.63a3.877 3.877 0 1 1 0-7.753h11.63V31.013h-11.63a3.877 3.877 0 0 1 0-7.753h11.63a7.761 7.761 0 0 1 7.753 7.753v11.63a7.761 7.761 0 0 1-7.753 7.754Z" fill="#0b2554" />
    <path data-name="Path 247" d="M158.944 23.26a11.63 11.63 0 1 1 11.63-11.63 11.644 11.644 0 0 1-11.63 11.63Zm0-15.507a3.877 3.877 0 1 0 3.877 3.877 3.883 3.883 0 0 0-3.877-3.877Z" fill="#0b2554" />
</svg>